<svg width="66" height="66" viewBox="0 0 66 66" fill="none" xmlns="http://www.w3.org/2000/svg">
<path d="M8.36982 13.9709H57.6301C58.0931 13.9709 58.5515 14.0621 58.9793 14.2393C59.407 14.4165 59.7957 14.6762 60.123 15.0036C60.4504 15.3309 60.7101 15.7196 60.8873 16.1474C61.0645 16.5751 61.1557 17.0335 61.1557 17.4965V20.665H4.84424V17.4965C4.84424 16.5615 5.21568 15.6647 5.87686 15.0036C6.53803 14.3424 7.43478 13.9709 8.36982 13.9709V13.9709Z" fill="#03EFAD"/>
<path d="M4.84424 20.665H61.1557V48.5088C61.1557 48.9718 61.0645 49.4302 60.8873 49.858C60.7101 50.2857 60.4504 50.6744 60.123 51.0018C59.7957 51.3291 59.407 51.5888 58.9793 51.766C58.5515 51.9432 58.0931 52.0344 57.6301 52.0344H8.36982C7.43478 52.0344 6.53803 51.6629 5.87686 51.0018C5.21568 50.3406 4.84424 49.4438 4.84424 48.5088V20.665V20.665Z" fill="white"/>
<path d="M12.5903 36.8401C12.6183 39.1399 13.5514 41.3359 15.1876 42.9523C16.8237 44.5687 19.0309 45.4751 21.3308 45.4751C23.6307 45.4751 25.838 44.5687 27.4741 42.9523C29.1102 41.3359 30.0434 39.1399 30.0713 36.8401H21.3302V28.1016C19.0124 28.1016 16.7896 29.0222 15.1506 30.6609C13.5116 32.2997 12.5907 34.5224 12.5903 36.8401Z" fill="#FFCA5F"/>
<path d="M24.8789 25.2927V33.2398H32.8247C32.8247 31.1323 31.9876 29.1112 30.4975 27.6208C29.0074 26.1305 26.9864 25.2931 24.8789 25.2927Z" fill="#F7899E"/>
<path d="M57.6301 13.2656H8.36986C7.24823 13.267 6.17293 13.7132 5.37981 14.5063C4.5867 15.2994 4.14052 16.3747 4.13916 17.4963V20.6648C4.13916 20.8519 4.21345 21.0312 4.34568 21.1634C4.47792 21.2957 4.65727 21.37 4.84428 21.37H60.457V48.5034C60.456 49.2512 60.1585 49.968 59.6298 50.4967C59.1011 51.0254 58.3843 51.3229 57.6366 51.3239H8.36986C7.62214 51.3229 6.90534 51.0254 6.37662 50.4967C5.8479 49.968 5.55042 49.2512 5.54939 48.5034V24.3103C5.54939 24.1233 5.47511 23.944 5.34287 23.8117C5.21064 23.6795 5.03129 23.6052 4.84428 23.6052C4.65727 23.6052 4.47792 23.6795 4.34568 23.8117C4.21345 23.944 4.13916 24.1233 4.13916 24.3103V48.5034C4.14086 49.625 4.58715 50.7001 5.38019 51.4931C6.17323 52.2862 7.24834 52.7324 8.36986 52.7341H57.6301C58.7516 52.7324 59.8267 52.2862 60.6198 51.4931C61.4128 50.7001 61.8591 49.625 61.8608 48.5034V17.4963C61.8595 16.3747 61.4133 15.2994 60.6202 14.5063C59.8271 13.7132 58.7517 13.267 57.6301 13.2656V13.2656ZM8.36986 14.6759H57.6301C58.379 14.6752 59.0974 14.9719 59.6275 15.5008C60.1576 16.0297 60.456 16.7475 60.457 17.4963V19.9597H5.54939V17.4963C5.55042 16.7486 5.8479 16.0318 6.37662 15.5031C6.90534 14.9744 7.62214 14.6769 8.36986 14.6759V14.6759Z" fill="#376782"/>
<path d="M55.6875 17.5867C55.7043 17.6298 55.7259 17.6709 55.7519 17.7091C55.7781 17.7476 55.8079 17.7834 55.8409 17.8161C55.873 17.8495 55.9089 17.8789 55.9479 17.9038C55.986 17.9297 56.0266 17.9517 56.0691 17.9695C56.1103 17.9878 56.1536 18.0012 56.198 18.0095C56.3114 18.0328 56.4289 18.0273 56.5397 17.9935C56.6505 17.9597 56.751 17.8988 56.8322 17.8161C56.8659 17.7844 56.8953 17.7484 56.9198 17.7091C56.9468 17.6712 56.9689 17.6301 56.9856 17.5867C57.0037 17.5452 57.0175 17.502 57.0268 17.4578C57.035 17.4122 57.0393 17.3661 57.0397 17.3198C57.0392 17.2732 57.0349 17.2266 57.0268 17.1806C57.0171 17.1365 57.0033 17.0933 56.9856 17.0517C56.9681 17.0091 56.946 16.9685 56.9198 16.9305C56.895 16.8922 56.8661 16.8568 56.8335 16.8248C56.7521 16.7436 56.6522 16.6833 56.5424 16.6492C56.4326 16.6151 56.3162 16.6081 56.2031 16.6289C56.1589 16.6382 56.1157 16.652 56.0742 16.6702C56.0315 16.687 55.9909 16.7086 55.953 16.7346C55.9137 16.7596 55.8778 16.7895 55.8461 16.8236C55.8134 16.8561 55.7836 16.8915 55.7571 16.9293C55.7319 16.9675 55.7103 17.0081 55.6927 17.0504C55.6752 17.0919 55.6623 17.1351 55.654 17.1793C55.6436 17.225 55.6388 17.2717 55.6398 17.3186C55.6387 17.3649 55.6435 17.4113 55.654 17.4565C55.6601 17.501 55.6713 17.5447 55.6875 17.5867V17.5867Z" fill="#376782"/>
<path d="M52.4236 17.9038C52.4621 17.9297 52.5032 17.9517 52.5461 17.9695C52.5873 17.9879 52.6306 18.0013 52.675 18.0095C52.7204 18.0188 52.7666 18.0236 52.8129 18.0237C52.8588 18.0234 52.9046 18.0187 52.9496 18.0095C52.9939 18.001 53.0371 17.9876 53.0785 17.9695C53.1208 17.9515 53.1614 17.9294 53.1996 17.9038C53.2385 17.8782 53.2748 17.8489 53.3079 17.8161C53.4398 17.6841 53.514 17.5052 53.514 17.3186C53.514 17.1319 53.4398 16.953 53.3079 16.821C53.2424 16.7551 53.1644 16.7029 53.0785 16.6676C53.0369 16.6496 52.9938 16.6358 52.9496 16.6263C52.8588 16.6096 52.7657 16.6096 52.675 16.6263C52.6307 16.6355 52.5875 16.6493 52.5461 16.6676C52.503 16.6844 52.4619 16.706 52.4236 16.732C52.3843 16.757 52.3483 16.7869 52.3166 16.821C52.2836 16.8529 52.2542 16.8883 52.229 16.9267C52.2033 16.9649 52.1813 17.0055 52.1632 17.0479C52.1464 17.0895 52.1334 17.1327 52.1245 17.1768C52.1148 17.2225 52.11 17.2692 52.1104 17.316C52.1101 17.4084 52.1282 17.5 52.1636 17.5854C52.199 17.6709 52.251 17.7484 52.3166 17.8136C52.3486 17.8478 52.3845 17.8781 52.4236 17.9038V17.9038Z" fill="#376782"/>
<path d="M48.8993 17.9038C48.9373 17.9299 48.9779 17.952 49.0205 17.9695C49.0618 17.9877 49.105 18.0012 49.1494 18.0095C49.1944 18.0187 49.2401 18.0235 49.286 18.0236C49.4026 18.0243 49.5174 17.9961 49.6204 17.9415C49.7234 17.887 49.8113 17.8079 49.8763 17.7111C49.9412 17.6144 49.9813 17.5031 49.9928 17.3872C50.0043 17.2712 49.987 17.1542 49.9424 17.0466C49.8977 16.939 49.8272 16.844 49.7369 16.7703C49.6467 16.6966 49.5397 16.6463 49.4253 16.6239C49.3109 16.6016 49.1928 16.6079 49.0815 16.6423C48.9702 16.6766 48.869 16.738 48.7872 16.8209C48.7549 16.8535 48.7256 16.8889 48.6995 16.9266C48.6742 16.9647 48.6531 17.0053 48.6364 17.0478C48.5997 17.1334 48.5809 17.2255 48.5809 17.3185C48.5817 17.505 48.6558 17.6838 48.7872 17.8161C48.8212 17.8494 48.8588 17.8788 48.8993 17.9038Z" fill="#376782"/>
<path d="M13.4295 33.0297C13.2553 32.9624 13.0615 32.9669 12.8906 33.0423C12.7198 33.1177 12.5858 33.2578 12.5181 33.4319C12.0185 34.7257 11.8099 36.1136 11.9072 37.4971C12.0044 38.8806 12.4051 40.2257 13.0808 41.4369C13.7564 42.648 14.6905 43.6956 15.8167 44.5051C16.9428 45.3146 18.2334 45.8661 19.5968 46.1206C20.9601 46.3751 22.3628 46.3263 23.7051 45.9776C25.0475 45.6289 26.2966 44.9889 27.3637 44.1031C28.4308 43.2172 29.2898 42.1073 29.8796 40.852C30.4694 39.5968 30.7756 38.2271 30.7764 36.8402C30.7764 36.6532 30.7021 36.4738 30.5699 36.3416C30.4377 36.2093 30.2583 36.1351 30.0713 36.1351H22.0353V28.1016C22.0353 27.9146 21.961 27.7353 21.8288 27.603C21.6965 27.4708 21.5172 27.3965 21.3302 27.3965C20.0051 27.3937 18.6946 27.6718 17.4849 28.2125C17.4002 28.2501 17.3239 28.3041 17.2601 28.3713C17.1963 28.4385 17.1464 28.5176 17.1131 28.6041C17.0799 28.6906 17.0641 28.7827 17.0665 28.8753C17.0689 28.968 17.0895 29.0592 17.1272 29.1438C17.1648 29.2285 17.2188 29.3049 17.286 29.3686C17.3532 29.4324 17.4323 29.4824 17.5188 29.5156C17.6052 29.5488 17.6974 29.5647 17.79 29.5622C17.8826 29.5598 17.9739 29.5392 18.0585 29.5015C18.8707 29.1372 19.7382 28.9115 20.625 28.8338V36.8402C20.625 36.9327 20.6433 37.0243 20.6787 37.1098C20.7142 37.1953 20.7662 37.2729 20.8316 37.3383C20.8971 37.4037 20.9749 37.4555 21.0604 37.4908C21.146 37.5261 21.2376 37.5442 21.3302 37.544H29.3352C29.2334 38.6893 28.887 39.7995 28.3194 40.7995C27.7518 41.7995 26.9762 42.666 26.045 43.3405C25.1137 44.0151 24.0486 44.4819 22.9215 44.7095C21.7944 44.9371 20.6316 44.9202 19.5116 44.6599C18.3916 44.3996 17.3405 43.902 16.4293 43.2006C15.5181 42.4993 14.768 41.6106 14.2297 40.5945C13.6914 39.5784 13.3775 38.4587 13.309 37.3109C13.2406 36.1631 13.4192 35.0139 13.833 33.9411C13.8664 33.8548 13.8826 33.7627 13.8804 33.6701C13.8782 33.5776 13.8578 33.4863 13.8203 33.4017C13.7829 33.317 13.729 33.2406 13.662 33.1768C13.5949 33.1129 13.5159 33.063 13.4295 33.0297Z" fill="#376782"/>
<path d="M15.3682 31.4531C15.4571 31.3552 15.5473 31.2598 15.6414 31.1657C15.7072 31.1002 15.7594 31.0223 15.7951 30.9367C15.8308 30.851 15.8493 30.7591 15.8495 30.6662C15.8496 30.5734 15.8315 30.4815 15.7962 30.3956C15.7608 30.3098 15.7089 30.2318 15.6434 30.166C15.5779 30.1002 15.5 30.048 15.4143 30.0123C15.3287 29.9767 15.2368 29.9582 15.1439 29.958C15.0511 29.9578 14.9592 29.9759 14.8733 30.0113C14.7875 30.0467 14.7095 30.0986 14.6437 30.1641C14.5329 30.2749 14.4259 30.3871 14.3214 30.5031C14.1964 30.642 14.1317 30.8248 14.1413 31.0113C14.151 31.1979 14.2343 31.3731 14.373 31.4983C14.5117 31.6234 14.6944 31.6884 14.881 31.679C15.0676 31.6696 15.2428 31.5865 15.3682 31.448V31.4531Z" fill="#376782"/>
<path d="M32.8234 33.9449C33.0104 33.9449 33.1898 33.8707 33.322 33.7384C33.4543 33.6062 33.5286 33.4268 33.5286 33.2398C33.5262 30.9463 32.6142 28.7474 30.9927 27.1254C29.3711 25.5034 27.1725 24.5907 24.8789 24.5876C24.6919 24.5876 24.5126 24.6619 24.3804 24.7942C24.2481 24.9264 24.1738 25.1058 24.1738 25.2928V33.2398C24.1738 33.4268 24.2481 33.6062 24.3804 33.7384C24.5126 33.8707 24.6919 33.9449 24.8789 33.9449H32.8234ZM25.5828 26.0391C27.251 26.2046 28.8103 26.9428 29.9957 28.1282C31.1811 29.3136 31.9193 30.873 32.0848 32.5412H25.5828V26.0391Z" fill="#376782"/>
<path d="M54.3649 31.5654C54.4599 31.5694 54.5548 31.5542 54.6438 31.5206C54.7329 31.4871 54.8142 31.4358 54.8829 31.37C54.9516 31.3042 55.0062 31.2252 55.0436 31.1377C55.0809 31.0502 55.1002 30.956 55.1002 30.8609C55.1002 30.7657 55.0809 30.6716 55.0436 30.5841C55.0062 30.4966 54.9516 30.4176 54.8829 30.3517C54.8142 30.2859 54.7329 30.2347 54.6438 30.2011C54.5548 30.1675 54.4599 30.1523 54.3649 30.1564H51.1422C51.0472 30.1523 50.9523 30.1675 50.8633 30.2011C50.7743 30.2347 50.693 30.2859 50.6243 30.3517C50.5556 30.4176 50.5009 30.4966 50.4636 30.5841C50.4262 30.6716 50.407 30.7657 50.407 30.8609C50.407 30.956 50.4262 31.0502 50.4636 31.1377C50.5009 31.2252 50.5556 31.3042 50.6243 31.37C50.693 31.4358 50.7743 31.4871 50.8633 31.5206C50.9523 31.5542 51.0472 31.5694 51.1422 31.5654H54.3649Z" fill="#376782"/>
<path d="M45.7875 36.523C45.7875 36.6156 45.8057 36.7073 45.8411 36.7928C45.8766 36.8784 45.9285 36.9561 45.994 37.0216C46.0595 37.0871 46.1372 37.139 46.2228 37.1744C46.3083 37.2099 46.4 37.2281 46.4926 37.2281H54.3649C54.5519 37.2281 54.7313 37.1538 54.8635 37.0216C54.9957 36.8893 55.07 36.71 55.07 36.523C55.07 36.336 54.9957 36.1566 54.8635 36.0244C54.7313 35.8922 54.5519 35.8179 54.3649 35.8179H46.4926C46.3056 35.8179 46.1262 35.8922 45.994 36.0244C45.8618 36.1566 45.7875 36.336 45.7875 36.523V36.523Z" fill="#376782"/>
<path d="M39.7276 42.8909H54.3649C54.5519 42.8909 54.7312 42.8167 54.8635 42.6844C54.9957 42.5522 55.07 42.3728 55.07 42.1858C55.07 41.9988 54.9957 41.8195 54.8635 41.6872C54.7312 41.555 54.5519 41.4807 54.3649 41.4807H39.7276C39.5406 41.4807 39.3612 41.555 39.229 41.6872C39.0967 41.8195 39.0225 41.9988 39.0225 42.1858C39.0225 42.3728 39.0967 42.5522 39.229 42.6844C39.3612 42.8167 39.5406 42.8909 39.7276 42.8909V42.8909Z" fill="#376782"/>
<path d="M47.6385 30.1564H39.7276C39.6325 30.1523 39.5376 30.1675 39.4486 30.2011C39.3596 30.2347 39.2783 30.2859 39.2096 30.3517C39.1409 30.4176 39.0863 30.4966 39.0489 30.5841C39.0116 30.6716 38.9923 30.7657 38.9923 30.8609C38.9923 30.956 39.0116 31.0502 39.0489 31.1377C39.0863 31.2252 39.1409 31.3042 39.2096 31.37C39.2783 31.4358 39.3596 31.4871 39.4486 31.5206C39.5376 31.5542 39.6325 31.5694 39.7276 31.5654H47.6385C47.7336 31.5694 47.8285 31.5542 47.9175 31.5206C48.0065 31.4871 48.0878 31.4358 48.1565 31.37C48.2252 31.3042 48.2799 31.2252 48.3172 31.1377C48.3545 31.0502 48.3738 30.956 48.3738 30.8609C48.3738 30.7657 48.3545 30.6716 48.3172 30.5841C48.2799 30.4966 48.2252 30.4176 48.1565 30.3517C48.0878 30.2859 48.0065 30.2347 47.9175 30.2011C47.8285 30.1675 47.7336 30.1523 47.6385 30.1564V30.1564Z" fill="#376782"/>
<path d="M39.7276 37.2281H42.6679C42.8549 37.2281 43.0343 37.1538 43.1665 37.0216C43.2988 36.8893 43.373 36.71 43.373 36.523C43.373 36.336 43.2988 36.1566 43.1665 36.0244C43.0343 35.8922 42.8549 35.8179 42.6679 35.8179H39.7276C39.5406 35.8179 39.3612 35.8922 39.229 36.0244C39.0967 36.1566 39.0225 36.336 39.0225 36.523C39.0225 36.71 39.0967 36.8893 39.229 37.0216C39.3612 37.1538 39.5406 37.2281 39.7276 37.2281V37.2281Z" fill="#376782"/>
</svg>
