<svg width="30" height="30" viewBox="0 0 30 30" fill="none" xmlns="http://www.w3.org/2000/svg">
<path d="M15 29.9933C23.2843 29.9933 30 23.2791 30 14.9966C30 6.71422 23.2843 0 15 0C6.71573 0 0 6.71422 0 14.9966C0 23.2791 6.71573 29.9933 15 29.9933Z" fill="#03EFAD"/>
<path d="M15 15.9222C17.7614 15.9222 20 13.6013 20 10.7382C20 7.87517 17.7614 5.5542 15 5.5542C12.2386 5.5542 10 7.87517 10 10.7382C10 13.6013 12.2386 15.9222 15 15.9222Z" fill="white"/>
<path d="M25.1853 26.1052C25.1853 26.1052 20.926 30.1783 15.1853 29.9932C9.44456 30.1783 5.1853 26.4755 5.1853 26.4755C5.1853 22.7726 9.66245 16.6628 15.1853 16.6628C20.7082 16.6628 25.1853 22.032 25.1853 26.1052Z" fill="white"/>
</svg>
